name C:\Users\u0101727\Documents\MyRepositories\upper-imu-dc\Results\main_tracking\Case_31\FLX01_linearAccelerations_bodyFrame.mot
datacolumns 4
datarows 47
range 5.01000000 5.47000000
endheader 
time	radius_imu_x	radius_imu_y	radius_imu_z	
          5.01000000	          3.21406084	          3.36650554	         12.10016668	
          5.02000000	          3.56022612	          3.53509991	         12.31774737	
          5.03000000	          3.75794664	          3.85821555	         12.51226555	
          5.04000000	          3.55346039	          3.84312689	         12.74586819	
          5.05000000	          3.67861343	          3.90408359	         12.91946757	
          5.06000000	          4.25449649	          3.83478481	         12.82583909	
          5.07000000	          4.44355645	          3.93950004	         12.90480969	
          5.08000000	          4.81121386	          4.15839128	         12.91094886	
          5.09000000	          5.26138682	          4.49404577	         12.82491083	
          5.10000000	          5.75259151	          4.90462383	         12.62228251	
          5.11000000	          6.20899887	          5.35628153	         12.29355941	
          5.12000000	          6.57014781	          5.82441268	         11.84244408	
          5.13000000	          6.80593651	          6.30236192	         11.28292322	
          5.14000000	          6.92048532	          6.79961473	         10.63694498	
          5.15000000	          6.93739285	          7.33268714	          9.93107993	
          5.16000000	          6.87826322	          7.91312449	          9.19287154	
          5.17000000	          6.74777343	          8.53842174	          8.44820954	
          5.18000000	          6.52953272	          9.18951273	          7.72052064	
          5.19000000	          6.18873144	          9.83554874	          7.03095053	
          5.20000000	          5.68159996	         10.44383533	          6.39877873	
          5.21000000	          4.97117527	         10.98970067	          5.84169457	
          5.22000000	          4.04060085	         11.46090770	          5.37502659	
          5.23000000	          2.89617874	         11.85523544	          5.00944415	
          5.24000000	          1.56238764	         12.17434719	          4.74780272	
          5.25000000	          0.07436958	         12.41805551	          4.58214789	
          5.26000000	         -1.53247067	         12.58072715	          4.49229003	
          5.27000000	         -3.22939806	         12.65230592	          4.44613757	
          5.28000000	         -4.99939285	         12.62143373	          4.40295956	
          5.29000000	         -6.83312077	         12.48046464	          4.31819748	
          5.30000000	         -8.71944547	         12.23070262	          4.14862435	
          5.31000000	        -10.63463387	         11.88669063	          3.85680430	
          5.32000000	        -12.53648767	         11.47514754	          3.41528225	
          5.33000000	        -14.36314835	         11.03710360	          2.81204693	
          5.34000000	        -16.03202024	         10.61190012	          2.05506408	
          5.35000000	        -17.44320368	         10.24314828	          1.17129311	
          5.36000000	        -18.51291029	          9.91839177	          0.35952355	
          5.37000000	        -19.31210742	          9.36140482	         -0.38754708	
          5.38000000	        -19.72825843	          9.39868879	         -1.27449700	
          5.39000000	        -19.69922297	          9.07969786	         -1.50964343	
          5.40000000	        -19.42944961	          9.37017113	         -1.60573137	
          5.41000000	        -18.76570531	          9.42529974	         -0.97339864	
          5.42000000	        -17.05373956	          9.45133102	         -0.21519696	
          5.43000000	        -14.72393728	          9.07224847	          0.85303117	
          5.44000000	        -11.64542117	          9.02018477	          1.87506869	
          5.45000000	         -8.64668334	          8.35197252	          2.53932003	
          5.46000000	         -5.88530489	          9.97013410	          3.75739512	
          5.47000000	         -4.76637731	          9.25154376	          5.08251855	
